<svg width="400" height="399" viewBox="0 0 400 399" fill="none" xmlns="http://www.w3.org/2000/svg">
<path fill-rule="evenodd" clip-rule="evenodd" d="M40.9226 183.692L40.1205 399H361.484V186.894H400L344.233 131.266V62.0312H298.496V94.047L204.213 0L0 183.692H40.9226Z" fill="#2C345C"/>
<path fill-rule="evenodd" clip-rule="evenodd" d="M253.108 219.359C246.911 213.177 238.505 209.7 229.737 209.7C220.97 209.7 212.563 213.177 206.366 219.359C204.243 221.477 202.12 223.595 199.997 225.712C197.874 223.595 195.75 221.477 193.627 219.359C187.435 213.182 179.024 209.705 170.258 209.705C152.008 209.705 137.207 224.469 137.207 242.673C137.207 274.714 176.835 303.369 199.997 318.965C218.803 304.582 262.793 268.725 262.793 242.673C262.793 233.928 259.307 225.542 253.11 219.361L253.108 219.359L253.108 219.359Z" fill="#D0A616"/>
</svg>
