<svg width="230" height="36" viewBox="0 0 230 36" fill="none" xmlns="http://www.w3.org/2000/svg">
<path d="M0 15.9833C0 13.4793 0.559027 11.2426 1.67708 9.27343C2.81944 7.27992 4.36284 5.73617 6.30728 4.64217C8.27603 3.52386 10.4757 2.96471 12.9062 2.96471C15.75 2.96471 18.2413 3.69404 20.3802 5.1527C22.5191 6.61137 24.0139 8.62919 24.8646 11.2062H18.9948C18.4114 9.99061 17.5851 9.07894 16.5156 8.47117C15.4705 7.86339 14.2552 7.5595 12.8698 7.5595C11.3871 7.5595 10.0625 7.91201 8.89582 8.61703C7.75346 9.29774 6.85416 10.2702 6.19791 11.5344C5.56597 12.7985 5.24999 14.2815 5.24999 15.9833C5.24999 17.6608 5.56597 19.1437 6.19791 20.4322C6.85416 21.6964 7.75346 22.681 8.89582 23.386C10.0625 24.0667 11.3871 24.4071 12.8698 24.4071C14.2552 24.4071 15.4705 24.1032 16.5156 23.4954C17.5851 22.8633 18.4114 21.9395 18.9948 20.724H24.8646C24.0139 23.3252 22.5191 25.3552 20.3802 26.8139C18.2656 28.2482 15.7743 28.9654 12.9062 28.9654C10.4757 28.9654 8.27603 28.4184 6.30728 27.3244C4.36284 26.2061 2.81944 24.6624 1.67708 22.6932C0.559027 20.724 0 18.4873 0 15.9833Z" fill="#2C345C"/>
<path d="M70.4426 8.09559C72.8488 8.09559 74.7933 8.86139 76.2759 10.393C77.7585 11.9003 78.4998 14.0153 78.4998 16.7382V28.5898H73.3957V17.4311C73.3957 15.8265 72.9946 14.5988 72.1926 13.7479C71.3905 12.8727 70.2967 12.4351 68.9113 12.4351C67.5016 12.4351 66.3835 12.8727 65.5571 13.7479C64.7551 14.5988 64.354 15.8265 64.354 17.4311V28.5898H59.2499V8.38733H64.354V10.9035C65.0346 10.0283 65.8974 9.34761 66.9426 8.86139C68.012 8.35086 69.1787 8.09559 70.4426 8.09559Z" fill="#2C345C"/>
<path d="M89.2963 12.581V22.354C89.2963 23.0348 89.4543 23.5331 89.7703 23.8492C90.1106 24.1409 90.6696 24.2868 91.4474 24.2868H93.8172V28.5898H90.6088C86.3068 28.5898 84.1557 26.4991 84.1557 22.3176V12.581H81.7495V8.38733H84.1557V3.3914H89.2963V8.38733H93.8172V12.581H89.2963Z" fill="#2C345C"/>
<path d="M100.077 5.98053C99.1776 5.98053 98.4241 5.70095 97.8165 5.1418C97.2331 4.55833 96.9415 3.84115 96.9415 2.99026C96.9415 2.13938 97.2331 1.43435 97.8165 0.875199C98.4241 0.291733 99.1776 0 100.077 0C100.976 0 101.718 0.291733 102.301 0.875199C102.908 1.43435 103.212 2.13938 103.212 2.99026C103.212 3.84115 102.908 4.55833 102.301 5.1418C101.718 5.70095 100.976 5.98053 100.077 5.98053ZM102.593 8.38733V28.5898H97.4883V8.38733H102.593Z" fill="#2C345C"/>
<path d="M118.828 8.09559C121.234 8.09559 123.179 8.86139 124.661 10.393C126.144 11.9003 126.885 14.0153 126.885 16.7382V28.5898H121.781V17.4311C121.781 15.8265 121.38 14.5988 120.578 13.7479C119.776 12.8727 118.682 12.4351 117.297 12.4351C115.887 12.4351 114.769 12.8727 113.943 13.7479C113.141 14.5988 112.74 15.8265 112.74 17.4311V28.5898H107.635V8.38733H112.74V10.9035C113.42 10.0283 114.283 9.34761 115.328 8.86139C116.398 8.35086 117.564 8.09559 118.828 8.09559Z" fill="#2C345C"/>
<path d="M143.114 8.09559C144.645 8.09559 146.007 8.43595 147.198 9.11666C148.388 9.77306 149.312 10.7577 149.968 12.0705C150.649 13.3589 150.989 14.9149 150.989 16.7382V28.5898H145.885V17.4311C145.885 15.8265 145.484 14.5988 144.682 13.7479C143.88 12.8727 142.786 12.4351 141.401 12.4351C139.991 12.4351 138.873 12.8727 138.046 13.7479C137.244 14.5988 136.843 15.8265 136.843 17.4311V28.5898H131.739V1.60453H136.843V10.9035C137.5 10.0283 138.375 9.34761 139.468 8.86139C140.562 8.35086 141.777 8.09559 143.114 8.09559Z" fill="#2C345C"/>
<path d="M164.812 28.918C162.867 28.918 161.117 28.4926 159.562 27.6417C158.006 26.7665 156.779 25.5388 155.879 23.9586C155.004 22.3784 154.567 20.555 154.567 18.4886C154.567 16.4221 155.017 14.5988 155.916 13.0186C156.84 11.4384 158.091 10.2228 159.671 9.37193C161.251 8.49673 163.013 8.05913 164.958 8.05913C166.902 8.05913 168.664 8.49673 170.244 9.37193C171.824 10.2228 173.063 11.4384 173.963 13.0186C174.886 14.5988 175.348 16.4221 175.348 18.4886C175.348 20.555 174.874 22.3784 173.926 23.9586C173.003 25.5388 171.739 26.7665 170.135 27.6417C168.555 28.4926 166.78 28.918 164.812 28.918ZM164.812 24.4691C165.735 24.4691 166.598 24.2503 167.4 23.8127C168.227 23.3508 168.883 22.6701 169.369 21.7706C169.855 20.8711 170.098 19.7771 170.098 18.4886C170.098 16.568 169.588 15.0972 168.567 14.0761C167.57 13.0307 166.343 12.5081 164.885 12.5081C163.426 12.5081 162.199 13.0307 161.202 14.0761C160.23 15.0972 159.744 16.568 159.744 18.4886C159.744 20.4092 160.218 21.8921 161.166 22.9375C162.138 23.9586 163.353 24.4691 164.812 24.4691Z" fill="#2C345C"/>
<path d="M181.353 28.8451C180.429 28.8451 179.663 28.5655 179.056 28.0064C178.472 27.4229 178.181 26.7057 178.181 25.8548C178.181 25.004 178.472 24.2989 179.056 23.7398C179.663 23.1563 180.429 22.8646 181.353 22.8646C182.252 22.8646 182.993 23.1563 183.577 23.7398C184.16 24.2989 184.452 25.004 184.452 25.8548C184.452 26.7057 184.16 27.4229 183.577 28.0064C182.993 28.5655 182.252 28.8451 181.353 28.8451Z" fill="#D0A616"/>
<path d="M187.25 18.4886C187.25 16.3978 187.676 14.5745 188.526 13.0186C189.377 11.4384 190.556 10.2228 192.063 9.37193C193.57 8.49673 195.296 8.05913 197.24 8.05913C199.743 8.05913 201.809 8.69121 203.438 9.95539C205.091 11.1953 206.197 12.9457 206.756 15.2066H201.25C200.959 14.3314 200.46 13.6507 199.756 13.1645C199.075 12.6539 198.224 12.3987 197.203 12.3987C195.745 12.3987 194.591 12.9335 193.74 14.0032C192.889 15.0486 192.464 16.5437 192.464 18.4886C192.464 20.4092 192.889 21.9043 193.74 22.974C194.591 24.0194 195.745 24.542 197.203 24.542C199.269 24.542 200.618 23.6182 201.25 21.7706H206.756C206.197 23.9586 205.091 25.6968 203.438 26.9853C201.785 28.2738 199.719 28.918 197.24 28.918C195.296 28.918 193.57 28.4926 192.063 27.6417C190.556 26.7665 189.377 25.551 188.526 23.995C187.676 22.4148 187.25 20.5793 187.25 18.4886Z" fill="#D0A616"/>
<path d="M219.464 28.918C217.519 28.918 215.769 28.4926 214.214 27.6417C212.658 26.7665 211.431 25.5388 210.531 23.9586C209.656 22.3784 209.219 20.555 209.219 18.4886C209.219 16.4221 209.668 14.5988 210.568 13.0186C211.491 11.4384 212.743 10.2228 214.323 9.37193C215.903 8.49673 217.665 8.05913 219.609 8.05913C221.554 8.05913 223.316 8.49673 224.896 9.37193C226.476 10.2228 227.715 11.4384 228.615 13.0186C229.538 14.5988 230 16.4221 230 18.4886C230 20.555 229.526 22.3784 228.578 23.9586C227.655 25.5388 226.391 26.7665 224.786 27.6417C223.207 28.4926 221.432 28.918 219.464 28.918ZM219.464 24.4691C220.387 24.4691 221.25 24.2503 222.052 23.8127C222.878 23.3508 223.535 22.6701 224.021 21.7706C224.507 20.8711 224.75 19.7771 224.75 18.4886C224.75 16.568 224.24 15.0972 223.219 14.0761C222.222 13.0307 220.995 12.5081 219.536 12.5081C218.078 12.5081 216.851 13.0307 215.854 14.0761C214.882 15.0972 214.396 16.568 214.396 18.4886C214.396 20.4092 214.87 21.8921 215.818 22.9375C216.79 23.9586 218.005 24.4691 219.464 24.4691Z" fill="#D0A616"/>
<path d="M31.3283 28.8H26.5202L38.1234 1.69412H43.4465L60.5451 36L55.7792 35.986L40.8656 5.9423H40.543L31.3283 28.8Z" fill="#2C345C"/>
<path d="M37.6798 15.2471H42.3375V28.8H37.6798V15.2471Z" fill="#D0A616"/>
<path d="M41.0672 20.3294H41.9141V24.9882H41.0672V20.3294Z" fill="#2C345C"/>
</svg>
